<svg width="154" height="51" viewBox="0 0 154 51" fill="none" xmlns="http://www.w3.org/2000/svg">
<rect width="154" height="51" rx="6" fill="white"/>
<path d="M26.2 23V11.672H30.616C31.48 11.672 32.232 11.8053 32.872 12.072C33.5227 12.328 34.024 12.744 34.376 13.32C34.728 13.8853 34.904 14.6427 34.904 15.592C34.904 16.4773 34.7067 17.2187 34.312 17.816C33.928 18.4133 33.4 18.8613 32.728 19.16C32.056 19.448 31.2933 19.592 30.44 19.592H28.488V23H26.2ZM28.488 17.544H30.408C31.0907 17.544 31.6293 17.384 32.024 17.064C32.4293 16.7333 32.632 16.2373 32.632 15.576C32.632 14.9893 32.4613 14.5467 32.12 14.248C31.7893 13.9493 31.256 13.8 30.52 13.8H28.488V17.544ZM36.3331 23V14.568H38.3491L38.4931 15.576C38.7065 15.256 38.9465 15.016 39.2131 14.856C39.4798 14.6853 39.7571 14.5733 40.0451 14.52C40.3331 14.456 40.6265 14.424 40.9251 14.424C41.0638 14.424 41.1918 14.4293 41.3091 14.44C41.4265 14.44 41.5118 14.44 41.5651 14.44V16.6H41.0371C40.5358 16.6 40.0985 16.6853 39.7251 16.856C39.3518 17.0267 39.0638 17.2933 38.8611 17.656C38.6691 18.0187 38.5731 18.4827 38.5731 19.048V23H36.3331ZM46.3941 23.112C45.5408 23.112 44.7941 22.9413 44.1541 22.6C43.5141 22.248 43.0181 21.752 42.6661 21.112C42.3141 20.4613 42.1381 19.6933 42.1381 18.808C42.1381 17.9013 42.3141 17.1227 42.6661 16.472C43.0288 15.8107 43.5301 15.304 44.1701 14.952C44.8101 14.6 45.5461 14.424 46.3781 14.424C47.2315 14.424 47.9728 14.6053 48.6021 14.968C49.2315 15.3307 49.7221 15.8373 50.0741 16.488C50.4261 17.1387 50.6021 17.9173 50.6021 18.824C50.6021 19.7093 50.4261 20.4773 50.0741 21.128C49.7328 21.768 49.2475 22.2587 48.6181 22.6C47.9995 22.9413 47.2581 23.112 46.3941 23.112ZM46.3621 21.064C46.8528 21.064 47.2475 20.9573 47.5461 20.744C47.8448 20.5307 48.0581 20.2533 48.1861 19.912C48.3248 19.56 48.3941 19.192 48.3941 18.808C48.3941 18.424 48.3248 18.056 48.1861 17.704C48.0581 17.352 47.8448 17.064 47.5461 16.84C47.2581 16.6053 46.8635 16.488 46.3621 16.488C45.8821 16.488 45.4928 16.6053 45.1941 16.84C44.8955 17.064 44.6768 17.352 44.5381 17.704C44.4101 18.056 44.3461 18.424 44.3461 18.808C44.3461 19.2027 44.4101 19.5707 44.5381 19.912C44.6768 20.2533 44.8955 20.5307 45.1941 20.744C45.4928 20.9573 45.8821 21.064 46.3621 21.064ZM55.5083 23.112C54.6549 23.112 53.9456 22.92 53.3803 22.536C52.8256 22.1413 52.4096 21.6187 52.1323 20.968C51.8549 20.3067 51.7163 19.576 51.7163 18.776C51.7163 17.9333 51.8656 17.1867 52.1643 16.536C52.4629 15.8747 52.9056 15.3573 53.4923 14.984C54.0789 14.6107 54.8096 14.424 55.6843 14.424C55.9829 14.424 56.2763 14.4613 56.5643 14.536C56.8629 14.6 57.1349 14.7013 57.3803 14.84C57.6363 14.968 57.8549 15.1387 58.0363 15.352V11.672H60.2763V23H58.1003L58.0683 22.056C57.8763 22.3013 57.6416 22.504 57.3643 22.664C57.0976 22.8133 56.8096 22.9253 56.5003 23C56.1909 23.0747 55.8603 23.112 55.5083 23.112ZM55.9563 21.096C56.4363 21.096 56.8256 20.984 57.1243 20.76C57.4336 20.536 57.6629 20.248 57.8123 19.896C57.9616 19.544 58.0363 19.1653 58.0363 18.76C58.0363 18.344 57.9616 17.9653 57.8123 17.624C57.6736 17.272 57.4496 16.9947 57.1403 16.792C56.8416 16.5787 56.4469 16.472 55.9563 16.472C55.4656 16.472 55.0709 16.584 54.7723 16.808C54.4736 17.032 54.2603 17.3253 54.1323 17.688C54.0149 18.04 53.9563 18.4187 53.9563 18.824C53.9563 19.1227 53.9883 19.4107 54.0523 19.688C54.1269 19.9547 54.2443 20.1947 54.4043 20.408C54.5643 20.6213 54.7723 20.792 55.0283 20.92C55.2843 21.0373 55.5936 21.096 55.9563 21.096ZM65.8602 23.112C64.6229 23.112 63.6683 22.7973 62.9963 22.168C62.3349 21.528 62.0043 20.568 62.0043 19.288V14.568H64.2443V19.128C64.2443 19.512 64.2976 19.8533 64.4043 20.152C64.5216 20.44 64.6976 20.6693 64.9323 20.84C65.1776 21.0107 65.4923 21.096 65.8763 21.096C66.2923 21.096 66.6123 21.0053 66.8363 20.824C67.0603 20.6427 67.2149 20.4027 67.3003 20.104C67.3856 19.7947 67.4283 19.4693 67.4283 19.128V14.568H69.6523V19.288C69.6523 20.6213 69.3163 21.592 68.6443 22.2C67.9829 22.808 67.0549 23.112 65.8602 23.112ZM75.1716 23.112C74.3076 23.112 73.5663 22.936 72.9476 22.584C72.3396 22.232 71.8756 21.736 71.5556 21.096C71.2356 20.4453 71.0756 19.6827 71.0756 18.808C71.0756 17.9227 71.241 17.1547 71.5716 16.504C71.9023 15.8427 72.377 15.3307 72.9956 14.968C73.625 14.6053 74.3823 14.424 75.2676 14.424C75.9503 14.424 76.5583 14.5467 77.0916 14.792C77.625 15.0373 78.0516 15.3893 78.3716 15.848C78.7023 16.3067 78.8943 16.872 78.9476 17.544H76.7556C76.6596 17.1707 76.473 16.8987 76.1956 16.728C75.929 16.5573 75.609 16.472 75.2356 16.472C74.7556 16.472 74.3716 16.5893 74.0836 16.824C73.8063 17.0587 73.6036 17.3573 73.4756 17.72C73.3583 18.0827 73.2996 18.4453 73.2996 18.808C73.2996 19.2027 73.3636 19.576 73.4916 19.928C73.6196 20.2693 73.8223 20.552 74.0996 20.776C74.3876 20.9893 74.761 21.096 75.2196 21.096C75.6036 21.096 75.9396 21.0107 76.2276 20.84C76.5156 20.6587 76.7023 20.3813 76.7876 20.008H79.0276C78.9743 20.7013 78.7663 21.2773 78.4036 21.736C78.041 22.1947 77.577 22.5413 77.0116 22.776C76.457 23 75.8436 23.112 75.1716 23.112ZM84.204 23C83.5 23 82.908 22.9147 82.428 22.744C81.9587 22.5733 81.6013 22.2853 81.356 21.88C81.1213 21.464 81.004 20.8987 81.004 20.184V16.568H79.756V14.568H81.004V12.312H83.244V14.568H85.084V16.568H83.244V19.864C83.244 20.216 83.308 20.4933 83.436 20.696C83.564 20.8987 83.852 21 84.3 21H85.004V23H84.204ZM86.5594 23V11.672H88.8474V16.36H93.7434V11.672H96.0474V23H93.7434V18.472H88.8474V23H86.5594ZM101.954 23.112C100.717 23.112 99.762 22.7973 99.09 22.168C98.4287 21.528 98.098 20.568 98.098 19.288V14.568H100.338V19.128C100.338 19.512 100.391 19.8533 100.498 20.152C100.615 20.44 100.791 20.6693 101.026 20.84C101.271 21.0107 101.586 21.096 101.97 21.096C102.386 21.096 102.706 21.0053 102.93 20.824C103.154 20.6427 103.309 20.4027 103.394 20.104C103.479 19.7947 103.522 19.4693 103.522 19.128V14.568H105.746V19.288C105.746 20.6213 105.41 21.592 104.738 22.2C104.077 22.808 103.149 23.112 101.954 23.112ZM107.489 23V14.568H109.585L109.697 15.544C109.932 15.256 110.199 15.032 110.497 14.872C110.807 14.7013 111.116 14.584 111.425 14.52C111.745 14.456 112.033 14.424 112.289 14.424C113.1 14.424 113.729 14.6 114.177 14.952C114.636 15.304 114.961 15.7787 115.153 16.376C115.356 16.9627 115.457 17.6187 115.457 18.344V23H113.217V18.632C113.217 18.376 113.196 18.12 113.153 17.864C113.111 17.608 113.031 17.3733 112.913 17.16C112.807 16.9467 112.652 16.776 112.449 16.648C112.247 16.52 111.98 16.456 111.649 16.456C111.223 16.456 110.865 16.5627 110.577 16.776C110.289 16.9893 110.076 17.2773 109.937 17.64C109.799 18.0027 109.729 18.4027 109.729 18.84V23H107.489ZM121.001 23C120.297 23 119.705 22.9147 119.225 22.744C118.756 22.5733 118.398 22.2853 118.153 21.88C117.918 21.464 117.801 20.8987 117.801 20.184V16.568H116.553V14.568H117.801V12.312H120.041V14.568H121.881V16.568H120.041V19.864C120.041 20.216 120.105 20.4933 120.233 20.696C120.361 20.8987 120.649 21 121.097 21H121.801V23H121.001Z" fill="url(#paint0_linear_71_833)"/>
<path d="M10.492 39.096C10.156 39.096 9.816 39.064 9.472 39C9.136 38.928 8.82 38.816 8.524 38.664C8.236 38.512 7.988 38.308 7.78 38.052C7.58 37.796 7.452 37.48 7.396 37.104H8.476C8.572 37.376 8.732 37.588 8.956 37.74C9.18 37.892 9.428 38 9.7 38.064C9.98 38.12 10.248 38.148 10.504 38.148C10.688 38.148 10.888 38.132 11.104 38.1C11.32 38.068 11.528 38 11.728 37.896C11.936 37.792 12.104 37.64 12.232 37.44C12.36 37.232 12.424 36.96 12.424 36.624C12.424 36.304 12.364 36.048 12.244 35.856C12.124 35.656 11.964 35.508 11.764 35.412C11.564 35.308 11.34 35.24 11.092 35.208C10.852 35.176 10.608 35.16 10.36 35.16H9.544V34.224H10.036C10.316 34.224 10.58 34.2 10.828 34.152C11.076 34.096 11.296 34.012 11.488 33.9C11.68 33.788 11.828 33.64 11.932 33.456C12.044 33.272 12.1 33.044 12.1 32.772C12.1 32.38 12.016 32.084 11.848 31.884C11.688 31.684 11.48 31.548 11.224 31.476C10.968 31.404 10.7 31.368 10.42 31.368C10.196 31.368 9.964 31.404 9.724 31.476C9.492 31.54 9.284 31.648 9.1 31.8C8.916 31.944 8.792 32.14 8.728 32.388H7.684C7.732 32.036 7.844 31.736 8.02 31.488C8.196 31.24 8.412 31.036 8.668 30.876C8.932 30.716 9.22 30.6 9.532 30.528C9.852 30.456 10.176 30.42 10.504 30.42C10.864 30.42 11.2 30.46 11.512 30.54C11.832 30.612 12.112 30.736 12.352 30.912C12.592 31.08 12.78 31.304 12.916 31.584C13.06 31.864 13.132 32.204 13.132 32.604C13.132 32.9 13.084 33.172 12.988 33.42C12.892 33.668 12.748 33.884 12.556 34.068C12.372 34.252 12.14 34.404 11.86 34.524C12.22 34.588 12.52 34.716 12.76 34.908C13.008 35.1 13.192 35.336 13.312 35.616C13.44 35.888 13.504 36.196 13.504 36.54C13.504 37.076 13.408 37.512 13.216 37.848C13.024 38.184 12.776 38.444 12.472 38.628C12.168 38.804 11.84 38.928 11.488 39C11.136 39.064 10.804 39.096 10.492 39.096ZM17.5196 39.072C16.8876 39.072 16.3676 38.932 15.9596 38.652C15.5516 38.364 15.2476 37.98 15.0476 37.5C14.8476 37.012 14.7476 36.464 14.7476 35.856C14.7476 35.248 14.8476 34.7 15.0476 34.212C15.2476 33.716 15.5556 33.324 15.9716 33.036C16.3876 32.748 16.9196 32.604 17.5676 32.604C17.8156 32.604 18.0636 32.636 18.3116 32.7C18.5676 32.756 18.8076 32.848 19.0316 32.976C19.2556 33.096 19.4476 33.26 19.6076 33.468V30.516H20.6276V39H19.6556L19.6076 38.052C19.4636 38.292 19.2796 38.488 19.0556 38.64C18.8396 38.784 18.5996 38.892 18.3356 38.964C18.0716 39.036 17.7996 39.072 17.5196 39.072ZM17.6636 38.172C18.0876 38.172 18.4436 38.064 18.7316 37.848C19.0196 37.632 19.2396 37.344 19.3916 36.984C19.5436 36.624 19.6196 36.232 19.6196 35.808C19.6196 35.368 19.5436 34.976 19.3916 34.632C19.2476 34.288 19.0316 34.016 18.7436 33.816C18.4556 33.616 18.0916 33.516 17.6516 33.516C17.1956 33.516 16.8276 33.62 16.5476 33.828C16.2756 34.036 16.0756 34.32 15.9476 34.68C15.8276 35.032 15.7676 35.428 15.7676 35.868C15.7676 36.188 15.7996 36.488 15.8636 36.768C15.9356 37.04 16.0436 37.284 16.1876 37.5C16.3396 37.708 16.5356 37.872 16.7756 37.992C17.0156 38.112 17.3116 38.172 17.6636 38.172ZM25.7042 39V30.516H28.6442C29.2682 30.516 29.8042 30.62 30.2522 30.828C30.7002 31.028 31.0402 31.336 31.2722 31.752C31.5122 32.168 31.6322 32.696 31.6322 33.336C31.6322 33.96 31.4922 34.488 31.2122 34.92C30.9402 35.344 30.5642 35.664 30.0842 35.88C29.6042 36.096 29.0522 36.204 28.4282 36.204H26.7482V39H25.7042ZM26.7482 35.256H28.3802C29.0282 35.256 29.5522 35.104 29.9522 34.8C30.3602 34.488 30.5642 33.984 30.5642 33.288C30.5642 32.68 30.4002 32.224 30.0722 31.92C29.7442 31.616 29.2522 31.464 28.5962 31.464H26.7482V35.256ZM33.0228 39V32.676H34.0068L34.0548 33.66C34.2148 33.412 34.3988 33.212 34.6068 33.06C34.8228 32.908 35.0588 32.796 35.3148 32.724C35.5788 32.644 35.8628 32.604 36.1668 32.604C36.2228 32.604 36.2748 32.604 36.3228 32.604C36.3788 32.604 36.4348 32.604 36.4908 32.604V33.564H36.1188C35.6228 33.564 35.2188 33.672 34.9068 33.888C34.6028 34.096 34.3828 34.38 34.2468 34.74C34.1108 35.092 34.0428 35.484 34.0428 35.916V39H33.0228ZM40.1421 39.072C39.4781 39.072 38.9221 38.936 38.4741 38.664C38.0261 38.384 37.6901 38 37.4661 37.512C37.2501 37.024 37.1421 36.468 37.1421 35.844C37.1421 35.212 37.2541 34.656 37.4781 34.176C37.7021 33.688 38.0381 33.304 38.4861 33.024C38.9341 32.744 39.4941 32.604 40.1661 32.604C40.8301 32.604 41.3821 32.744 41.8221 33.024C42.2701 33.304 42.6021 33.688 42.8181 34.176C43.0421 34.656 43.1541 35.212 43.1541 35.844C43.1541 36.468 43.0421 37.024 42.8181 37.512C42.5941 38 42.2581 38.384 41.8101 38.664C41.3701 38.936 40.8141 39.072 40.1421 39.072ZM40.1421 38.172C40.6061 38.172 40.9821 38.068 41.2701 37.86C41.5661 37.652 41.7821 37.372 41.9181 37.02C42.0621 36.668 42.1341 36.276 42.1341 35.844C42.1341 35.412 42.0621 35.02 41.9181 34.668C41.7821 34.316 41.5661 34.036 41.2701 33.828C40.9821 33.62 40.6061 33.516 40.1421 33.516C39.6861 33.516 39.3101 33.62 39.0141 33.828C38.7261 34.036 38.5101 34.316 38.3661 34.668C38.2301 35.02 38.1621 35.412 38.1621 35.844C38.1621 36.276 38.2301 36.668 38.3661 37.02C38.5101 37.372 38.7261 37.652 39.0141 37.86C39.3101 38.068 39.6861 38.172 40.1421 38.172ZM47.0508 39.072C46.4188 39.072 45.8988 38.932 45.4908 38.652C45.0828 38.364 44.7788 37.98 44.5788 37.5C44.3788 37.012 44.2788 36.464 44.2788 35.856C44.2788 35.248 44.3788 34.7 44.5788 34.212C44.7788 33.716 45.0868 33.324 45.5028 33.036C45.9188 32.748 46.4508 32.604 47.0988 32.604C47.3468 32.604 47.5948 32.636 47.8428 32.7C48.0988 32.756 48.3388 32.848 48.5628 32.976C48.7868 33.096 48.9788 33.26 49.1388 33.468V30.516H50.1588V39H49.1868L49.1388 38.052C48.9948 38.292 48.8108 38.488 48.5868 38.64C48.3708 38.784 48.1308 38.892 47.8668 38.964C47.6028 39.036 47.3308 39.072 47.0508 39.072ZM47.1948 38.172C47.6188 38.172 47.9748 38.064 48.2628 37.848C48.5508 37.632 48.7708 37.344 48.9228 36.984C49.0748 36.624 49.1508 36.232 49.1508 35.808C49.1508 35.368 49.0748 34.976 48.9228 34.632C48.7788 34.288 48.5628 34.016 48.2748 33.816C47.9868 33.616 47.6228 33.516 47.1828 33.516C46.7268 33.516 46.3588 33.62 46.0788 33.828C45.8068 34.036 45.6068 34.32 45.4788 34.68C45.3588 35.032 45.2988 35.428 45.2988 35.868C45.2988 36.188 45.3308 36.488 45.3948 36.768C45.4668 37.04 45.5748 37.284 45.7188 37.5C45.8708 37.708 46.0668 37.872 46.3068 37.992C46.5468 38.112 46.8428 38.172 47.1948 38.172ZM54.401 39.072C53.529 39.072 52.865 38.84 52.409 38.376C51.961 37.912 51.737 37.2 51.737 36.24V32.676H52.757V36.192C52.757 36.608 52.817 36.964 52.937 37.26C53.057 37.556 53.237 37.784 53.477 37.944C53.725 38.096 54.033 38.172 54.401 38.172C54.785 38.172 55.101 38.096 55.349 37.944C55.597 37.784 55.777 37.556 55.889 37.26C56.009 36.964 56.069 36.608 56.069 36.192V32.676H57.089V36.24C57.089 37.2 56.857 37.912 56.393 38.376C55.937 38.84 55.273 39.072 54.401 39.072ZM61.3751 39.072C60.7111 39.072 60.1591 38.936 59.7191 38.664C59.2871 38.384 58.9631 38 58.7471 37.512C58.5391 37.024 58.4351 36.472 58.4351 35.856C58.4351 35.256 58.5431 34.712 58.7591 34.224C58.9831 33.728 59.3191 33.336 59.7671 33.048C60.2231 32.752 60.7991 32.604 61.4951 32.604C61.9271 32.604 62.3111 32.676 62.6471 32.82C62.9911 32.964 63.2751 33.176 63.4991 33.456C63.7231 33.728 63.8791 34.072 63.9671 34.488H62.9231C62.8031 34.136 62.6111 33.888 62.3471 33.744C62.0911 33.592 61.7871 33.516 61.4351 33.516C60.9551 33.516 60.5711 33.628 60.2831 33.852C59.9951 34.076 59.7831 34.368 59.6471 34.728C59.5191 35.08 59.4551 35.456 59.4551 35.856C59.4551 36.272 59.5231 36.656 59.6591 37.008C59.7951 37.36 60.0071 37.644 60.2951 37.86C60.5831 38.068 60.9551 38.172 61.4111 38.172C61.7471 38.172 62.0631 38.1 62.3591 37.956C62.6631 37.812 62.8631 37.556 62.9591 37.188H64.0151C63.9351 37.62 63.7631 37.976 63.4991 38.256C63.2431 38.536 62.9271 38.744 62.5511 38.88C62.1831 39.008 61.7911 39.072 61.3751 39.072ZM67.6839 39.072C67.0199 39.072 66.5519 38.892 66.2799 38.532C66.0159 38.172 65.8839 37.66 65.8839 36.996V33.576H64.8519V32.676H65.8839V30.78H66.9039V32.676H68.8479V33.576H66.9039V36.864C66.9039 37.104 66.9239 37.324 66.9639 37.524C67.0039 37.716 67.0879 37.872 67.2159 37.992C67.3439 38.104 67.5359 38.164 67.7919 38.172C67.9759 38.172 68.1359 38.14 68.2719 38.076C68.4159 38.012 68.5359 37.936 68.6319 37.848L69.0759 38.592C68.9399 38.704 68.7959 38.796 68.6439 38.868C68.4999 38.94 68.3479 38.992 68.1879 39.024C68.0359 39.056 67.8679 39.072 67.6839 39.072ZM76.0601 39.072C75.3961 39.072 74.8401 38.936 74.3921 38.664C73.9441 38.384 73.6081 38 73.3841 37.512C73.1681 37.024 73.0601 36.468 73.0601 35.844C73.0601 35.212 73.1721 34.656 73.3961 34.176C73.6201 33.688 73.9561 33.304 74.4041 33.024C74.8521 32.744 75.4121 32.604 76.0841 32.604C76.7481 32.604 77.3001 32.744 77.7401 33.024C78.1881 33.304 78.5201 33.688 78.7361 34.176C78.9601 34.656 79.0721 35.212 79.0721 35.844C79.0721 36.468 78.9601 37.024 78.7361 37.512C78.5121 38 78.1761 38.384 77.7281 38.664C77.2881 38.936 76.7321 39.072 76.0601 39.072ZM76.0601 38.172C76.5241 38.172 76.9001 38.068 77.1881 37.86C77.4841 37.652 77.7001 37.372 77.8361 37.02C77.9801 36.668 78.0521 36.276 78.0521 35.844C78.0521 35.412 77.9801 35.02 77.8361 34.668C77.7001 34.316 77.4841 34.036 77.1881 33.828C76.9001 33.62 76.5241 33.516 76.0601 33.516C75.6041 33.516 75.2281 33.62 74.9321 33.828C74.6441 34.036 74.4281 34.316 74.2841 34.668C74.1481 35.02 74.0801 35.412 74.0801 35.844C74.0801 36.276 74.1481 36.668 74.2841 37.02C74.4281 37.372 74.6441 37.652 74.9321 37.86C75.2281 38.068 75.6041 38.172 76.0601 38.172ZM80.9316 39V33.576H79.8996V32.676H80.9316V32.004C80.9316 31.532 80.9956 31.148 81.1236 30.852C81.2596 30.548 81.4716 30.324 81.7596 30.18C82.0556 30.036 82.4436 29.964 82.9236 29.964H83.6436V30.864H83.0316C82.7436 30.864 82.5196 30.912 82.3596 31.008C82.2076 31.104 82.0996 31.248 82.0356 31.44C81.9796 31.624 81.9516 31.852 81.9516 32.124V32.676H83.6436V33.576H81.9516V39H80.9316ZM90.5165 39C90.0365 39 89.6485 38.928 89.3525 38.784C89.0645 38.64 88.8525 38.416 88.7165 38.112C88.5885 37.808 88.5245 37.424 88.5245 36.96V33.576H87.4925V32.676H88.5245V30.792H89.5445V32.676H91.2365V33.576H89.5445V36.852C89.5445 37.284 89.6205 37.604 89.7725 37.812C89.9325 38.012 90.2525 38.112 90.7325 38.112H91.2005V39H90.5165ZM92.3899 39V30.516H93.4099V33.648C93.5619 33.424 93.7459 33.236 93.9619 33.084C94.1859 32.924 94.4299 32.804 94.6939 32.724C94.9579 32.644 95.2299 32.604 95.5099 32.604C96.1259 32.604 96.6059 32.732 96.9499 32.988C97.3019 33.244 97.5499 33.592 97.6939 34.032C97.8379 34.464 97.9099 34.96 97.9099 35.52V39H96.8899V35.832C96.8899 35.552 96.8699 35.276 96.8299 35.004C96.7979 34.724 96.7299 34.472 96.6259 34.248C96.5219 34.024 96.3619 33.844 96.1459 33.708C95.9379 33.572 95.6539 33.504 95.2939 33.504C94.9499 33.504 94.6539 33.58 94.4059 33.732C94.1659 33.884 93.9739 34.088 93.8299 34.344C93.6859 34.592 93.5779 34.868 93.5059 35.172C93.4419 35.468 93.4099 35.76 93.4099 36.048V39H92.3899ZM102.216 39.072C101.544 39.072 100.988 38.936 100.548 38.664C100.108 38.384 99.7798 38 99.5638 37.512C99.3478 37.024 99.2398 36.468 99.2398 35.844C99.2398 35.212 99.3518 34.656 99.5758 34.176C99.8078 33.688 100.144 33.304 100.584 33.024C101.024 32.744 101.564 32.604 102.204 32.604C102.7 32.604 103.124 32.7 103.476 32.892C103.836 33.076 104.132 33.324 104.364 33.636C104.596 33.948 104.764 34.292 104.868 34.668C104.972 35.036 105.016 35.408 105 35.784C104.992 35.856 104.984 35.928 104.976 36C104.976 36.072 104.972 36.144 104.964 36.216H100.272C100.304 36.584 100.396 36.916 100.548 37.212C100.7 37.508 100.916 37.744 101.196 37.92C101.476 38.088 101.824 38.172 102.24 38.172C102.448 38.172 102.656 38.148 102.864 38.1C103.08 38.044 103.272 37.952 103.44 37.824C103.616 37.696 103.74 37.524 103.812 37.308H104.856C104.76 37.716 104.58 38.052 104.316 38.316C104.052 38.572 103.736 38.764 103.368 38.892C103 39.012 102.616 39.072 102.216 39.072ZM100.296 35.328H103.956C103.948 34.968 103.868 34.652 103.716 34.38C103.564 34.108 103.356 33.896 103.092 33.744C102.836 33.592 102.528 33.516 102.168 33.516C101.776 33.516 101.444 33.6 101.172 33.768C100.908 33.936 100.704 34.156 100.56 34.428C100.416 34.7 100.328 35 100.296 35.328ZM109.833 39V30.516H112.845C113.725 30.516 114.461 30.696 115.053 31.056C115.645 31.408 116.089 31.904 116.385 32.544C116.689 33.176 116.841 33.916 116.841 34.764C116.841 35.604 116.693 36.344 116.397 36.984C116.101 37.616 115.657 38.112 115.065 38.472C114.473 38.824 113.733 39 112.845 39H109.833ZM110.877 38.052H112.773C113.461 38.052 114.025 37.912 114.465 37.632C114.905 37.352 115.233 36.968 115.449 36.48C115.665 35.984 115.773 35.412 115.773 34.764C115.773 34.132 115.665 33.568 115.449 33.072C115.241 32.576 114.921 32.184 114.489 31.896C114.057 31.608 113.505 31.464 112.833 31.464H110.877V38.052ZM120.258 39.072C119.97 39.072 119.69 39.036 119.418 38.964C119.154 38.884 118.914 38.768 118.698 38.616C118.49 38.456 118.322 38.26 118.194 38.028C118.074 37.788 118.014 37.512 118.014 37.2C118.014 36.84 118.078 36.536 118.206 36.288C118.342 36.04 118.522 35.844 118.746 35.7C118.97 35.556 119.23 35.452 119.526 35.388C119.822 35.324 120.13 35.292 120.45 35.292H122.31C122.31 34.932 122.258 34.62 122.154 34.356C122.058 34.092 121.898 33.888 121.674 33.744C121.45 33.592 121.154 33.516 120.786 33.516C120.562 33.516 120.354 33.54 120.162 33.588C119.97 33.636 119.806 33.712 119.67 33.816C119.534 33.92 119.434 34.06 119.37 34.236H118.278C118.334 33.948 118.442 33.704 118.602 33.504C118.77 33.296 118.97 33.128 119.202 33C119.442 32.864 119.698 32.764 119.97 32.7C120.242 32.636 120.514 32.604 120.786 32.604C121.698 32.604 122.346 32.872 122.73 33.408C123.114 33.944 123.306 34.668 123.306 35.58V39H122.454L122.394 38.196C122.218 38.436 122.006 38.62 121.758 38.748C121.51 38.876 121.254 38.96 120.99 39C120.734 39.048 120.49 39.072 120.258 39.072ZM120.354 38.172C120.754 38.172 121.098 38.108 121.386 37.98C121.682 37.844 121.91 37.648 122.07 37.392C122.23 37.136 122.31 36.824 122.31 36.456V36.144H121.194C120.93 36.144 120.67 36.148 120.414 36.156C120.158 36.164 119.926 36.196 119.718 36.252C119.51 36.308 119.342 36.404 119.214 36.54C119.094 36.676 119.034 36.872 119.034 37.128C119.034 37.368 119.094 37.564 119.214 37.716C119.342 37.868 119.506 37.984 119.706 38.064C119.914 38.136 120.13 38.172 120.354 38.172ZM127.67 41.832C127.182 41.832 126.71 41.764 126.254 41.628C125.806 41.492 125.402 41.256 125.042 40.92L125.486 40.116C125.798 40.364 126.13 40.56 126.482 40.704C126.842 40.848 127.218 40.92 127.61 40.92C128.266 40.92 128.734 40.728 129.014 40.344C129.302 39.968 129.446 39.488 129.446 38.904V38.148C129.302 38.364 129.118 38.544 128.894 38.688C128.678 38.824 128.438 38.928 128.174 39C127.91 39.064 127.638 39.096 127.358 39.096C126.734 39.096 126.242 38.972 125.882 38.724C125.522 38.476 125.266 38.132 125.114 37.692C124.962 37.252 124.886 36.744 124.886 36.168V32.676H125.906V35.88C125.906 36.168 125.922 36.452 125.954 36.732C125.994 37.004 126.07 37.252 126.182 37.476C126.294 37.692 126.458 37.868 126.674 38.004C126.89 38.132 127.178 38.196 127.538 38.196C127.994 38.196 128.358 38.084 128.63 37.86C128.91 37.636 129.11 37.336 129.23 36.96C129.358 36.584 129.422 36.168 129.422 35.712V32.676H130.442V39C130.442 39.456 130.382 39.86 130.262 40.212C130.142 40.564 129.962 40.86 129.722 41.1C129.482 41.34 129.19 41.52 128.846 41.64C128.51 41.768 128.118 41.832 127.67 41.832Z" fill="black"/>
<path d="M19.3333 11.2V9.6C19.7867 9.6 20.1333 9.25334 20.1333 8.8C20.1333 8.34666 19.7867 8 19.3333 8H8.66664C8.21329 8 7.86664 8.34666 7.86664 8.8C7.86664 9.25334 8.21329 9.6 8.66664 9.6V11.2C8.21329 11.2 7.86664 11.5467 7.86664 12C7.86664 12.4533 8.21329 12.8 8.66664 12.8H8.67336C8.79554 15.25 10.591 17.2784 12.9333 17.7587V18.9333C12.48 18.9333 12.1333 19.28 12.1333 19.7333C12.1333 20.1855 12.4782 20.5315 12.9298 20.5332C12.8822 22.2982 12.3537 22.3491 11.9466 22.4H11.8666C11.8565 22.4 11.8472 22.4 11.84 22.4C11.8388 22.4002 11.8377 22.4005 11.8366 22.4007C11.3981 22.4157 11.0666 22.7568 11.0666 23.2C11.0666 23.6533 11.4133 24 11.8666 24H16.1333C16.5866 24 16.9333 23.6533 16.9333 23.2C16.9333 22.7566 16.6016 22.4155 16.1629 22.4007C16.1619 22.4005 16.161 22.4002 16.16 22.4C16.1514 22.4 16.1428 22.4 16.1333 22.4H16.0533C15.6462 22.3491 15.1178 22.2982 15.0701 20.5332C15.5217 20.5315 15.8666 20.1855 15.8666 19.7333C15.8666 19.28 15.52 18.9333 15.0666 18.9333V17.7587C17.409 17.2784 19.2044 15.25 19.3266 12.8H19.3333C19.7866 12.8 20.1333 12.4533 20.1333 12C20.1333 11.5467 19.7866 11.2 19.3333 11.2ZM8.39998 8.8C8.39998 8.64 8.50664 8.53334 8.66664 8.53334H19.3333C19.4933 8.53334 19.6 8.64 19.6 8.8C19.6 8.96 19.4933 9.06666 19.3333 9.06666H8.66664C8.50664 9.06666 8.39998 8.96 8.39998 8.8ZM9.19998 9.6H18.8V11.2H9.19998V9.6ZM16.1333 22.9333C16.2933 22.9333 16.4 23.04 16.4 23.2C16.4 23.36 16.2933 23.4667 16.1333 23.4667H11.8666C11.7066 23.4667 11.6 23.36 11.6 23.2C11.6 23.04 11.7066 22.9333 11.8666 22.9333H16.1333ZM13.0133 22.4C13.2533 22.0533 13.44 21.4933 13.4667 20.5333H14.5333C14.56 21.4933 14.72 22.0533 14.9867 22.4H13.0133ZM15.3333 19.7333C15.3333 19.8933 15.2267 20 15.0667 20H14.8H13.2H12.9333C12.7733 20 12.6667 19.8933 12.6667 19.7333C12.6667 19.5733 12.7733 19.4667 12.9333 19.4667H15.0667C15.2266 19.4667 15.3333 19.5733 15.3333 19.7333ZM14.5333 17.8667V18.9333H13.4667V17.8667H14.5333ZM14 17.3333C11.44 17.3333 9.33333 15.3333 9.19998 12.8H18.8C18.6666 15.3333 16.56 17.3333 14 17.3333ZM19.3333 12.2667H8.66664C8.50664 12.2667 8.39998 12.16 8.39998 12C8.39998 11.84 8.50664 11.7333 8.66664 11.7333H19.3333C19.4933 11.7333 19.6 11.84 19.6 12C19.6 12.16 19.4933 12.2667 19.3333 12.2667Z" fill="url(#paint1_linear_71_833)"/>
<path d="M12.9333 10.1333H10.8C10.64 10.1333 10.5333 10.24 10.5333 10.4C10.5333 10.56 10.64 10.6666 10.8 10.6666H12.9333C13.0933 10.6666 13.2 10.56 13.2 10.4C13.2 10.24 13.0933 10.1333 12.9333 10.1333Z" fill="url(#paint2_linear_71_833)"/>
<path d="M17.2 10.1333H15.0666C14.9066 10.1333 14.8 10.24 14.8 10.4C14.8 10.56 14.9066 10.6666 15.0666 10.6666H17.2C17.36 10.6666 17.4666 10.56 17.4666 10.4C17.4666 10.24 17.36 10.1333 17.2 10.1333Z" fill="url(#paint3_linear_71_833)"/>
<path d="M14 10.1333C13.84 10.1333 13.7333 10.24 13.7333 10.4C13.7333 10.56 13.84 10.6666 14 10.6666C14.16 10.6666 14.2666 10.56 14.2666 10.4C14.2666 10.24 14.16 10.1333 14 10.1333Z" fill="url(#paint4_linear_71_833)"/>
<path d="M18.2667 10.1333C18.1067 10.1333 18 10.24 18 10.4C18 10.56 18.1067 10.6666 18.2667 10.6666C18.4267 10.6666 18.5333 10.56 18.5333 10.4C18.5333 10.24 18.4267 10.1333 18.2667 10.1333Z" fill="url(#paint5_linear_71_833)"/>
<path d="M9.73333 10.1333C9.57333 10.1333 9.46667 10.24 9.46667 10.4C9.46667 10.56 9.57333 10.6666 9.73333 10.6666C9.89333 10.6666 9.99999 10.56 9.99999 10.4C9.99999 10.24 9.89333 10.1333 9.73333 10.1333Z" fill="url(#paint6_linear_71_833)"/>
<path d="M13.2 16.2668C13.36 16.2668 13.4666 16.1602 13.4666 16.0002C13.4666 15.8402 13.36 15.7335 13.2 15.7335C12.0266 15.7335 11.0666 14.7735 11.0666 13.6002C11.0666 13.4402 10.96 13.3335 10.8 13.3335C10.64 13.3335 10.5333 13.4402 10.5333 13.6002C10.5333 15.0668 11.7333 16.2668 13.2 16.2668Z" fill="url(#paint7_linear_71_833)"/>
<defs>
<linearGradient id="paint0_linear_71_833" x1="27.5574" y1="13.9477" x2="120.007" y2="35.8151" gradientUnits="userSpaceOnUse">
<stop stop-color="#1C7FF0"/>
<stop offset="1" stop-color="#9747FF"/>
</linearGradient>
<linearGradient id="paint1_linear_71_833" x1="14" y1="8" x2="14" y2="24" gradientUnits="userSpaceOnUse">
<stop stop-color="#0183FF"/>
<stop offset="1" stop-color="#9747FF"/>
</linearGradient>
<linearGradient id="paint2_linear_71_833" x1="11.8667" y1="10.1333" x2="11.8667" y2="10.6666" gradientUnits="userSpaceOnUse">
<stop stop-color="#0183FF"/>
<stop offset="1" stop-color="#9747FF"/>
</linearGradient>
<linearGradient id="paint3_linear_71_833" x1="16.1333" y1="10.1333" x2="16.1333" y2="10.6666" gradientUnits="userSpaceOnUse">
<stop stop-color="#0183FF"/>
<stop offset="1" stop-color="#9747FF"/>
</linearGradient>
<linearGradient id="paint4_linear_71_833" x1="14" y1="10.1333" x2="14" y2="10.6666" gradientUnits="userSpaceOnUse">
<stop stop-color="#0183FF"/>
<stop offset="1" stop-color="#9747FF"/>
</linearGradient>
<linearGradient id="paint5_linear_71_833" x1="18.2667" y1="10.1333" x2="18.2667" y2="10.6666" gradientUnits="userSpaceOnUse">
<stop stop-color="#0183FF"/>
<stop offset="1" stop-color="#9747FF"/>
</linearGradient>
<linearGradient id="paint6_linear_71_833" x1="9.73333" y1="10.1333" x2="9.73333" y2="10.6666" gradientUnits="userSpaceOnUse">
<stop stop-color="#0183FF"/>
<stop offset="1" stop-color="#9747FF"/>
</linearGradient>
<linearGradient id="paint7_linear_71_833" x1="12" y1="13.3335" x2="12" y2="16.2668" gradientUnits="userSpaceOnUse">
<stop stop-color="#0183FF"/>
<stop offset="1" stop-color="#9747FF"/>
</linearGradient>
</defs>
</svg>
